<svg version="1.2" xmlns="http://www.w3.org/2000/svg" viewBox="0 0 700 187" width="700" height="187">
	<title>Logo-ai</title>
	<style>
		.s0 { fill: #515051 } 
		.s1 { fill: #00adee } 
		.s2 { fill: #27436f } 
		.s3 { fill: #f7de76 } 
	</style>
	<g id="katman 1">
		<g id="&lt;Group&gt;">
			<g id="&lt;Group&gt;">
				<g id="&lt;Group&gt;">
					<path id="&lt;Compound Path&gt;" class="s0" d="m323.3 134.8l-1.8 5.5-2.1 6.3-4.2-11.8h-1l-4.1 11.8-2.1-6.3-2-5.4h-1.1l4.6 13.2h1.2l1.3-3.8 2.7-7.7 2.7 7.7 1.4 3.7h1.2l4.5-13.2z"/>
				</g>
				<g id="&lt;Group&gt;">
					<path id="&lt;Compound Path&gt;" class="s0" d="m345.1 134.7l-1.8 5.5-2.2 6.3-4.1-11.7h-1l-4.1 11.7-2.1-6.2-1.9-5.5h-1.3l4.7 13.2h1.2l1.3-3.8 2.7-7.7 2.7 7.7 1.4 3.8 1.2-0.1 4.5-13.2z"/>
				</g>
				<g id="&lt;Group&gt;">
					<path id="&lt;Compound Path&gt;" class="s0" d="m366.9 134.7l-1.8 5.4-2.1 6.3-4.2-11.7h-1l-4.1 11.7-2.2-6.2-1.8-5.5h-1.2l4.6 13.2h1.2l1.3-3.7 2.7-7.7 2.8 7.6 1.3 3.8h1.2l4.5-13.3z"/>
				</g>
				<g id="&lt;Group&gt;">
					<path id="&lt;Compound Path&gt;" class="s0" d="m371.4 146.5q-0.2-0.3-0.7-0.3-0.3 0-0.6 0.3-0.2 0.2-0.2 0.6 0 0.4 0.2 0.7 0.3 0.2 0.7 0.2 0.4 0 0.6-0.2 0.3-0.3 0.3-0.7 0-0.4-0.3-0.6z"/>
				</g>
				<g id="&lt;Group&gt;">
					<path id="&lt;Compound Path&gt;" fill-rule="evenodd" class="s0" d="m389.2 141.2c0 1.3-0.3 2.5-0.9 3.5q-0.8 1.6-2.3 2.4-1.5 0.9-3.4 0.9-2 0.1-3.4-0.8-1.5-0.8-2.3-2.3l0.1 9.3-1.2 0.1v-19.7h1l0.1 2.9c0.4-0.9 1.2-1.7 2.2-2.2q1.5-0.9 3.4-0.9 1.9 0 3.4 0.8 1.5 0.9 2.4 2.4c0.5 1.1 0.9 2.2 0.9 3.6zm-1.2 0c0-1.2-0.2-2.2-0.7-3.1-0.5-0.8-1.1-1.5-2-2-0.8-0.5-1.8-0.7-2.9-0.7q-1.6 0-2.8 0.7-1.3 0.8-2 2.1c-0.5 0.9-0.7 1.9-0.7 3 0 1.2 0.2 2.2 0.7 3q0.7 1.4 2 2.1 1.3 0.7 2.9 0.7c1 0 2-0.3 2.9-0.7 0.8-0.5 1.5-1.2 1.9-2.1 0.5-0.9 0.7-1.9 0.7-3z"/>
				</g>
				<g id="&lt;Group&gt;">
					<path id="&lt;Compound Path&gt;" class="s0" d="m403 134.5v7.4q0 1.3-0.6 2.5-0.6 1.1-1.7 1.8-1.2 0.7-2.6 0.7c-1.4 0-2.5-0.4-3.3-1.3-0.8-0.8-1.2-1.9-1.2-3.5v-7.5h-1.1v7.6c0 1.8 0.5 3.2 1.5 4.2q1.5 1.6 4 1.5 1.7 0 3-0.7c0.9-0.5 1.6-1.2 2.1-2.1v2.6h1.1l-0.1-13.2z"/>
				</g>
				<g id="&lt;Group&gt;">
					<path id="&lt;Compound Path&gt;" fill-rule="evenodd" class="s0" d="m421 134.5l0.1 13.2h-1.1v-3c-0.5 1-1.3 1.8-2.2 2.4q-1.6 0.8-3.5 0.8c-1.3 0-2.4-0.3-3.4-0.9q-1.5-0.8-2.3-2.4-0.9-1.5-0.9-3.5c0-1.3 0.3-2.5 0.9-3.5q0.8-1.6 2.3-2.5c1-0.5 2.1-0.9 3.4-0.9q1.9 0 3.4 0.9 1.5 0.8 2.3 2.3v-2.9zm-1.1 6.6c0-1.2-0.3-2.2-0.7-3.1-0.5-0.8-1.2-1.5-2-2q-1.3-0.7-2.9-0.7c-1 0-2 0.2-2.8 0.7q-1.3 0.7-2 2.1c-0.5 0.9-0.7 1.8-0.7 3 0 1.2 0.2 2.1 0.7 3q0.7 1.4 2 2.1c0.8 0.4 1.8 0.7 2.9 0.7q1.6 0 2.8-0.8c0.9-0.4 1.6-1.1 2-2 0.5-0.9 0.7-1.9 0.7-3z"/>
				</g>
				<g id="&lt;Group&gt;">
					<path id="&lt;Compound Path&gt;" class="s0" d="m435.8 135.7q-1.5-1.5-4.1-1.5c-1.1 0-2.1 0.3-3 0.8q-1.4 0.7-2.2 2v-2.6h-1v13.2h1.1v-7.3c0-0.9 0.2-1.8 0.6-2.5 0.5-0.8 1.1-1.4 1.8-1.8q1.2-0.7 2.7-0.7 2.1 0 3.3 1.2 1.2 1.2 1.2 3.5v7.6h1.1v-7.6q0-2.7-1.5-4.3z"/>
				</g>
				<g id="&lt;Group&gt;">
					<path id="&lt;Compound Path&gt;" class="s0" d="m449 146.2c-0.4 0.1-0.7 0.3-1.2 0.4q-0.6 0.2-1.1 0.2-1.4 0-1.9-0.8-0.5-0.8-0.5-2.4l-0.1-8.2h4.6v-1.1l-4.6 0.1v-4l-1.1 0.1v3.9h-2.8v1h2.8v8.2q0.1 2.1 0.8 3.2c0.6 0.7 1.5 1 2.9 1 0.8 0 1.7-0.2 2.7-0.7z"/>
				</g>
				<g id="&lt;Group&gt;">
					<path id="&lt;Compound Path&gt;" fill-rule="evenodd" class="s0" d="m464.5 140.9q0 1.9-0.8 3.5-0.9 1.6-2.4 2.5c-1 0.6-2.2 0.9-3.5 0.9q-2 0-3.5-0.9-1.5-0.9-2.4-2.4-0.9-1.6-0.9-3.6c0-1.3 0.3-2.4 0.9-3.5q0.8-1.6 2.4-2.4c1-0.6 2.1-0.9 3.4-0.9 1.3 0 2.5 0.2 3.5 0.9q1.6 0.8 2.5 2.4c0.5 1 0.8 2.2 0.8 3.5zm-1.1 0q0-1.6-0.7-3-0.8-1.3-2.1-2-1.2-0.8-2.9-0.8c-1 0-2 0.3-2.8 0.8q-1.3 0.8-2 2.1-0.7 1.3-0.7 2.9 0 1.7 0.7 3 0.7 1.3 2 2.1c0.8 0.5 1.8 0.7 2.9 0.7q1.6 0 2.9-0.8 1.2-0.7 2-2 0.7-1.4 0.7-3z"/>
				</g>
				<g id="&lt;Group&gt;">
					<path id="&lt;Compound Path&gt;" class="s0" d="m473.7 134.1q-1.5 0-2.7 0.8c-0.8 0.6-1.4 1.3-1.9 2.3v-2.9h-1v13.2h1.1v-6.8q0-1.5 0.6-2.8c0.4-0.8 0.9-1.5 1.6-2q1-0.7 2.3-0.7c0.8 0 1.5 0.2 2.2 0.6l0.5-1q-1.2-0.7-2.7-0.7z"/>
				</g>
				<g id="&lt;Group&gt;">
					<path id="&lt;Compound Path&gt;" class="s0" d="m478.5 146.1q-0.2-0.3-0.6-0.3c-0.3 0-0.5 0.1-0.7 0.3q-0.2 0.2-0.2 0.6 0 0.4 0.2 0.7c0.2 0.1 0.4 0.2 0.7 0.2q0.4 0 0.6-0.2 0.3-0.3 0.3-0.7 0-0.4-0.3-0.6z"/>
				</g>
				<g id="&lt;Group&gt;">
					<path id="&lt;Compound Path&gt;" class="s0" d="m492.4 144.9c-0.6 0.6-1.2 1-1.9 1.3q-1.1 0.4-2.2 0.4-1.6 0-2.9-0.7c-0.9-0.5-1.6-1.1-2.1-2q-0.8-1.3-0.8-3.1c0-1.2 0.3-2.2 0.8-3.1q0.7-1.3 2-2c0.9-0.4 1.9-0.7 2.9-0.7q1.1 0 2.2 0.4 1 0.4 1.8 1.2l0.7-0.7c-1.3-1.3-2.9-1.9-4.7-1.9q-1.9 0-3.5 0.8c-1 0.6-1.8 1.4-2.4 2.5q-0.9 1.5-0.9 3.5 0 2 0.9 3.6 0.9 1.5 2.5 2.4c1 0.6 2.2 0.9 3.5 0.9 0.9 0 1.7-0.2 2.6-0.5q1.2-0.6 2.2-1.5z"/>
				</g>
				<g id="&lt;Group&gt;">
					<path id="&lt;Compound Path&gt;" fill-rule="evenodd" class="s0" d="m508.7 140.7q0 2-0.8 3.6-0.9 1.5-2.4 2.4c-1 0.6-2.2 0.9-3.5 0.9q-2 0-3.5-0.8-1.5-1-2.4-2.5-0.9-1.6-0.9-3.5c0-1.3 0.3-2.5 0.9-3.5q0.8-1.6 2.4-2.5c1-0.6 2.1-0.9 3.4-0.9 1.3 0 2.5 0.3 3.5 0.9q1.6 0.8 2.4 2.4c0.6 1 0.9 2.2 0.9 3.5zm-1.1 0q0-1.6-0.7-2.9-0.8-1.3-2.1-2.1-1.2-0.7-2.9-0.7c-1 0-2 0.2-2.9 0.7q-1.2 0.8-1.9 2.1-0.8 1.3-0.7 3 0 1.6 0.7 2.9 0.7 1.3 2 2.1c0.8 0.5 1.8 0.7 2.9 0.7q1.6 0 2.9-0.7 1.2-0.8 2-2.1 0.7-1.3 0.7-3z"/>
				</g>
				<g id="&lt;Group&gt;">
					<path id="&lt;Compound Path&gt;" class="s0" d="m531.4 135.4c-1-1-2.3-1.6-3.9-1.5q-1.6 0-2.9 0.8-1.3 0.9-2 2.4-0.5-1.5-1.7-2.4c-0.9-0.5-1.9-0.8-3.1-0.8-0.9 0-1.8 0.2-2.6 0.7-0.8 0.5-1.4 1.1-1.9 2v-2.5h-1.1l0.1 13.2h1.1v-7.4c0-1 0.2-1.8 0.6-2.5q0.5-1.1 1.5-1.8 1.1-0.6 2.3-0.6 2 0 3.1 1.2 1 1.2 1 3.4l0.1 7.7h1.1v-7.4c0-1 0.2-1.8 0.5-2.6q0.6-1.1 1.6-1.7c0.7-0.4 1.5-0.7 2.3-0.7q2 0 3 1.2 1.1 1.2 1.1 3.5l0.1 7.6h1.1v-7.6q-0.1-2.8-1.4-4.2z"/>
				</g>
				<g id="&lt;Group&gt;">
					<path id="&lt;Compound Path&gt;" class="s0" d="m538.3 145.9q-0.3-0.3-0.7-0.3c-0.2 0-0.4 0.1-0.6 0.3q-0.3 0.2-0.3 0.6 0 0.4 0.3 0.7c0.2 0.1 0.4 0.2 0.7 0.2q0.3 0 0.6-0.2 0.3-0.3 0.3-0.7 0-0.4-0.3-0.6z"/>
				</g>
				<g id="&lt;Group&gt;">
					<path id="&lt;Compound Path&gt;" class="s0" d="m548.7 145.8c-0.4 0.2-0.7 0.3-1.2 0.4q-0.6 0.2-1.1 0.2-1.4 0-1.9-0.8-0.5-0.8-0.6-2.3v-8.3h4.6v-1h-4.6v-4l-1.1 0.1v3.9h-2.9v1h2.9v8.3q0 2.1 0.8 3.1c0.6 0.7 1.5 1.1 2.8 1.1 0.9 0 1.8-0.3 2.7-0.8z"/>
				</g>
				<g id="&lt;Group&gt;">
					<path id="&lt;Compound Path&gt;" class="s0" d="m557.4 133.8q-1.5 0-2.6 0.8c-0.8 0.6-1.4 1.3-1.9 2.3v-2.9h-1.1l0.1 13.2h1.1v-6.8q0-1.5 0.5-2.8c0.4-0.8 1-1.5 1.7-2q1-0.7 2.2-0.7 1.2 0 2.2 0.6l0.5-1c-0.7-0.5-1.6-0.7-2.7-0.7z"/>
				</g>
			</g>
			<g id="&lt;Group&gt;">
				<g id="&lt;Group&gt;">
					<path id="&lt;Compound Path&gt;" fill-rule="evenodd" class="s0" d="m268 44l0.2 51-46.3 0.2 0.1 13.9-18.6 0.1-0.2-65zm-46.2 18.7v14l27.8-0.1v-14z"/>
				</g>
				<g id="&lt;Group&gt;">
					<path id="&lt;Compound Path&gt;" class="s0" d="m319 43.8l0.1 46.4-27.7 0.1-0.2-46.4h-18.5l0.2 65 64.8-0.2-0.2-65z"/>
				</g>
				<g id="&lt;Group&gt;">
					<path id="&lt;Compound Path&gt;" fill-rule="evenodd" class="s0" d="m407 43.4l0.2 65-18.5 0.1-0.1-13.9-27.7 0.1v13.9l-18.5 0.1-0.2-65zm-46.3 18.7l0.1 14 27.7-0.1v-14z"/>
				</g>
				<g id="&lt;Group&gt;">
					<path id="&lt;Compound Path&gt;" class="s0" d="m457.9 43.3l0.2 33.2-33.4-33.1h-13.1l0.3 65h18.5l-0.1-33.3 33.3 33.1h13.1l-0.2-65z"/>
				</g>
				<g id="&lt;Group&gt;">
					<path id="&lt;Compound Path&gt;" class="s0" d="m481.1 43.2l0.1 18.6 23.1-0.1 0.2 46.4 18.5-0.1-0.2-46.4 23.2-0.1v-18.6z"/>
				</g>
				<g id="&lt;Group&gt;">
					<path id="&lt;Compound Path&gt;" fill-rule="evenodd" class="s0" d="m615.4 42.7l0.3 65-64.9 0.2-0.2-65zm-46.3 18.8l0.1 27.8 27.8-0.1-0.1-27.8z"/>
				</g>
				<g id="&lt;Group&gt;">
					<path id="&lt;Compound Path&gt;" fill-rule="evenodd" class="s0" d="m685.2 107.4l-26.2 0.1-20.2-20.1v20.2l-18.5 0.1-0.2-65 64.8-0.3 0.2 51.1h-13.9zm-46.5-46.2v13.9l27.8-0.1v-13.9z"/>
				</g>
			</g>
			<g id="&lt;Group&gt;">
				<g id="&lt;Group&gt;">
					<path id="&lt;Compound Path&gt;" fill-rule="evenodd" class="s1" d="m74.7 69.8c0 4.3-1.7 8.2-4.5 11.1-2.8 2.8-6.7 4.6-11 4.6-8.7 0-15.7-7-15.7-15.6 0-4.3 1.7-8.2 4.5-11.1 2.8-2.8 6.7-4.6 11-4.6 4.4 0 8.3 1.7 11.1 4.5 2.9 2.9 4.6 6.8 4.6 11.1zm-9.3-1.9h-4.4v-4.4l-3.8 0.1v4.3l-4.4 0.1v3.8h4.4v4.3h3.8v-4.4h4.4z"/>
				</g>
			</g>
			<g id="&lt;Group&gt;">
				<g id="&lt;Group&gt;">
					<path id="&lt;Compound Path&gt;" fill-rule="evenodd" class="s1" d="m74.8 106.5c0.1 4.4-1.7 8.3-4.5 11.1-2.8 2.9-6.7 4.6-11 4.6-8.6 0.1-15.6-6.9-15.7-15.5 0-4.4 1.7-8.3 4.6-11.2 2.8-2.8 6.7-4.6 11-4.6 4.3 0 8.2 1.7 11 4.6 2.9 2.8 4.6 6.7 4.6 11zm-13.7-6.4c0-1.1-0.9-1.9-1.9-1.9-1.1 0-1.9 0.8-1.9 1.9 0 1 0.9 1.9 1.9 1.9 1 0 1.9-0.9 1.9-1.9zm0 13c0-1.1-0.8-1.9-1.9-1.9-1 0-1.8 0.8-1.8 1.9 0 1 0.8 1.9 1.8 1.9 1.1 0 1.9-0.9 1.9-1.9zm-8.2-8.4l0.1 3.8 12.5-0.1v-3.7z"/>
				</g>
			</g>
			<g id="&lt;Group&gt;">
				<g id="&lt;Group&gt;">
					<path id="&lt;Compound Path&gt;" fill-rule="evenodd" class="s1" d="m111.4 69.7c0.1 4.3-1.7 8.2-4.5 11-2.8 2.9-6.7 4.6-11 4.7-8.6 0-15.7-7-15.7-15.6 0-4.4 1.7-8.3 4.6-11.1 2.8-2.9 6.7-4.6 11-4.6 4.3-0.1 8.2 1.7 11 4.5 2.9 2.8 4.6 6.7 4.6 11.1zm-12.9 0l3.1-3.1-2.7-2.7-3.1 3.1-3.1-3.1-2.7 2.7 3.1 3.1-3 3.2 2.6 2.6 3.1-3.1 3.1 3.1 2.7-2.7z"/>
				</g>
			</g>
			<g id="&lt;Group&gt;">
				<g id="&lt;Group&gt;">
					<path id="&lt;Path&gt;" class="s1" d="m87.4 102.8c-2.2 1.9-4.5 3.9-6.8 6.1q-0.2-1.2-0.3-2.4c0-4.3 1.7-8.3 4.6-11.1 2.8-2.8 6.7-4.6 11-4.6q2.8 0 5.2 0.9c-4.7 3.5-9.1 7-13.2 10.7-0.3 0.1-0.4 0.3-0.5 0.4z"/>
					<path id="&lt;Path&gt;" class="s1" d="m111.6 106.1v0.3c0 4.3-1.7 8.2-4.6 11.1-2.4 2.4-5.6 4.1-9.2 4.5 4.4-5.5 9-10.9 13.8-15.9z"/>
				</g>
			</g>
			<g id="&lt;Group&gt;">
				<path id="&lt;Compound Path&gt;" class="s2" d="m34.1 157.3c-1.2-2.3-2.5-4.5-3.9-6.6-1.6-2.4-3.3-4.8-4.9-7.1l-0.3-0.4c-2.4-3.2-4.8-6.2-7.3-9.1v8.2c0 4.6 1.9 8.8 4.9 11.9 3.1 3 7.3 4.9 11.9 4.9h0.5c-0.3-0.6-0.6-1.2-0.9-1.8zm100.4-73c-1.5 1.3-3 2.6-4.5 3.8-0.3 0.3-0.7 0.6-1.1 0.9l0.2 52.9c0 2.2-0.9 4.3-2.4 5.7-1.4 1.5-3.5 2.4-5.7 2.4l-42.8 0.2c-0.1 0.3-0.3 0.6-0.5 0.9l-2.4 4c-0.7 1.3-1.4 2.5-2.1 3.8l47.9-0.2c4.6 0 8.8-1.9 11.8-4.9 3-3.1 4.9-7.3 4.9-11.9l-0.2-60.2z"/>
				<path id="&lt;Compound Path&gt;" fill-rule="evenodd" class="s2" d="m137.2 51.7l0.2 0.2 0.1 16.3q-0.4 0.2-0.8 0.4c-2.4 1.2-5 2.7-7.9 4.5v-17.4l-1.2-1h-11.5c-4.6 0-8.8-1.8-11.9-4.9-3-3-4.9-7.2-4.9-11.8l-0.1-11.4-0.3-0.5-64.9 0.2c-2.2 0-4.2 0.9-5.7 2.4-1.4 1.5-2.3 3.5-2.3 5.7l0.3 90.7q-2.8-1.5-5.7-2.9l-2.3-1c-0.2-0.1-0.5-0.2-0.7-0.3l-0.3-86.4c0-4.7 1.9-8.9 4.9-11.9 3-3.1 7.2-5 11.8-5l69.7-0.3c1 0.1 2 0.5 2.9 1.3l29.3 28.4c0.9 0.7 1.5 1.9 1.5 3.3q0 0.7-0.2 1.4zm-14.8-5.7l-14.5-14 0.1 6c0 2.2 0.9 4.2 2.4 5.7 1.4 1.4 3.4 2.3 5.7 2.3z"/>
			</g>
			<g id="&lt;Group&gt;">
				<path id="&lt;Path&gt;" class="s3" d="m161.7 60.5c-6.2 3.8-12.4 7.9-18.2 12.4-2.1 1.5-4.1 3-6 4.4q-0.5 0.5-1 0.9l-4.2 3.5q-1.7 1.5-3.4 2.9c-0.4 0.3-0.8 0.6-1.1 1-0.4 0.2-0.7 0.5-1.1 0.8-1.6 1.5-3.1 2.9-4.7 4.4-1 1-2 2-3.1 2.9l-1.3 1.2c-0.8 0.9-1.7 1.7-2.6 2.5l-3.6 3.9c-0.2 0.2-0.3 0.4-0.5 0.5-0.3 0.3-0.5 0.6-0.8 0.8-5.4 5.8-10.8 12-15.9 18.4-0.2 0.3-0.5 0.6-0.7 0.9-3.1 4.1-6.1 8.1-8.9 12.1-1.2 1.7-2.3 3.4-3.5 5.2q-1.1 1.8-2.3 3.6c-1.4 2.1-2.7 4.3-4 6.5l-0.5 0.9-2 3.3c-0.8 1.5-1.7 3-2.5 4.6-0.2 0.3-0.3 0.6-0.5 0.8q-0.5 1-0.9 1.8c-0.8 1.5-1.5 3-2.3 4.6-0.4 0.8-0.8 1.5-1.1 2.3q-0.2 0.5-0.4 1l-22.3-0.1q-1.2-4.4-3.5-9.5c-0.1-0.2-0.3-0.5-0.4-0.7-0.4-0.9-0.8-1.7-1.3-2.6q-1.5-2.8-3.2-5.4-0.4-0.7-0.9-1.4c-1.6-2.5-3.3-5-5-7.3-0.1-0.2-0.2-0.4-0.3-0.4q-0.6-0.9-1.3-1.8c-2.5-3.1-5-6.2-7.5-9q-0.6-0.7-1.3-1.4l-0.6-0.7c-2.1-2.4-4.2-4.6-6.3-6.7q3 1.3 6.2 2.7l0.7 0.3 1.5 0.7c2.2 1 4.3 2.1 6.4 3.2q0.5 0.2 0.8 0.4c3.2 1.6 6.1 3.1 8.7 4.8 6.4 3.8 11.1 7 15.4 10.5l1.3 1 1.4-1.7c1-1.3 2.1-2.6 3.1-3.9 2.4-2.9 4.9-5.7 7.3-8.5l2.6-2.8c1.7-1.8 3.3-3.7 5.1-5.5 3.4-3.5 6.9-6.9 10.4-10.2 0.2-0.2 0.4-0.3 0.5-0.5 2.2-2.1 4.3-4 6.4-5.8q0.6-0.5 1.1-1l0.4-0.2q0.8-0.7 1.5-1.3c3.9-3.4 8-6.7 12.6-10.2l0.4-0.3 4.3-3.3c0.8-0.5 1.7-1.1 2.5-1.7 0.7-0.4 1.4-0.9 2-1.3l2.6-1.8q3.3-2.3 6.5-4.4l6.4-3.8c0.3-0.2 0.6-0.3 0.9-0.5 2.9-1.8 5.4-3.2 7.8-4.5q0.4-0.2 0.8-0.4c1-0.6 2.1-1.1 3.2-1.7 6.6-3.6 13.4-6.7 20.2-9.4z"/>
			</g>
		</g>
	</g>
</svg>