<svg version="1.2" xmlns="http://www.w3.org/2000/svg" viewBox="0 0 1000 1000" width="1000" height="1000">
	<title>Logo-ai</title>
	<style>
		.s0 { fill: #515051 } 
		.s1 { fill: #00adee } 
		.s2 { fill: #27436f } 
		.s3 { fill: #f7de76 } 
	</style>
	<g id="katman 1">
		<g id="&lt;Group&gt;">
			<g id="&lt;Group&gt;">
				<g id="&lt;Group&gt;">
					<path id="&lt;Compound Path&gt;" class="s0" d="m452.4 447.8l-1.9 5.4-2.1 6.3-4.1-11.7h-1l-4.2 11.6-2.1-6.2-1.9-5.4h-1.2l4.6 13.1h1.2l1.3-3.7 2.8-7.7 2.7 7.7 1.3 3.7h1.2l4.6-13.1z"/>
				</g>
				<g id="&lt;Group&gt;">
					<path id="&lt;Compound Path&gt;" class="s0" d="m474.2 447.8l-1.9 5.4-2.1 6.3-4.1-11.7h-1l-4.1 11.6-2.2-6.2-1.9-5.4h-1.2l4.6 13.1h1.2l1.4-3.7 2.7-7.7 2.7 7.7 1.3 3.7h1.2l4.6-13.1z"/>
				</g>
				<g id="&lt;Group&gt;">
					<path id="&lt;Compound Path&gt;" class="s0" d="m496 447.8l-1.8 5.4-2.2 6.3-4.1-11.7h-1l-4.1 11.6-2.2-6.2-1.8-5.4h-1.2l4.5 13.1h1.3l1.3-3.7 2.7-7.7 2.7 7.7 1.3 3.7h1.2l4.6-13.1z"/>
				</g>
				<g id="&lt;Group&gt;">
					<path id="&lt;Compound Path&gt;" class="s0" d="m500.5 459.6q-0.3-0.3-0.7-0.3-0.3 0-0.6 0.3-0.3 0.2-0.3 0.6 0 0.4 0.3 0.7 0.3 0.2 0.6 0.2 0.4 0 0.7-0.2 0.2-0.3 0.2-0.7 0-0.4-0.2-0.6z"/>
				</g>
				<g id="&lt;Group&gt;">
					<path id="&lt;Compound Path&gt;" fill-rule="evenodd" class="s0" d="m518.3 454.3c0 1.4-0.4 2.6-0.9 3.6q-0.9 1.5-2.3 2.4-1.6 0.9-3.5 0.9-1.9 0-3.4-0.9-1.4-0.8-2.2-2.3v9.4h-1.1v-19.6h1.1v2.9c0.4-1 1.2-1.8 2.2-2.3q1.5-0.9 3.4-0.9 1.9 0 3.5 0.9 1.4 0.9 2.3 2.4c0.5 1.1 0.9 2.2 0.9 3.5zm-1.2 0c0-1.1-0.2-2.1-0.7-3-0.5-0.9-1.1-1.5-1.9-2-0.9-0.5-1.9-0.7-2.9-0.7q-1.7 0-2.9 0.7-1.3 0.7-2 2c-0.5 0.9-0.7 1.9-0.7 3 0 1.2 0.2 2.2 0.7 3.1q0.7 1.3 2 2 1.2 0.7 2.9 0.7c1 0 2-0.2 2.9-0.7 0.8-0.5 1.4-1.1 1.9-2 0.5-0.9 0.7-1.9 0.7-3.1z"/>
				</g>
				<g id="&lt;Group&gt;">
					<path id="&lt;Compound Path&gt;" class="s0" d="m532.1 447.8v7.3q0 1.4-0.6 2.5-0.6 1.2-1.7 1.8-1.2 0.7-2.6 0.7c-1.4 0-2.6-0.5-3.3-1.3-0.8-0.8-1.2-1.9-1.2-3.5v-7.5h-1.1v7.6c0 1.8 0.5 3.2 1.4 4.2q1.5 1.5 4.1 1.5 1.7 0 3-0.7c0.9-0.5 1.6-1.2 2.1-2.1v2.6h1.1v-13.1z"/>
				</g>
				<g id="&lt;Group&gt;">
					<path id="&lt;Compound Path&gt;" fill-rule="evenodd" class="s0" d="m550.2 447.8v13.1h-1.1v-2.9c-0.5 1-1.3 1.7-2.2 2.3q-1.6 0.9-3.5 0.9c-1.3 0-2.4-0.3-3.4-0.9q-1.5-0.9-2.3-2.4-0.9-1.6-0.9-3.6c0-1.3 0.3-2.4 0.9-3.5q0.8-1.5 2.3-2.4c1-0.6 2.1-0.9 3.4-0.9q1.9 0 3.5 0.9 1.4 0.8 2.2 2.3v-2.9zm-1.1 6.5c0-1.1-0.2-2.1-0.7-3-0.4-0.9-1.1-1.5-2-2q-1.2-0.7-2.8-0.7c-1.1 0-2.1 0.2-2.9 0.7q-1.3 0.7-2 2c-0.5 0.9-0.7 1.9-0.7 3 0 1.2 0.2 2.2 0.7 3.1q0.7 1.3 2 2c0.8 0.5 1.8 0.7 2.9 0.7q1.6 0 2.8-0.7c0.9-0.5 1.6-1.1 2-2 0.5-0.9 0.7-1.9 0.7-3.1z"/>
				</g>
				<g id="&lt;Group&gt;">
					<path id="&lt;Compound Path&gt;" class="s0" d="m565 449.1q-1.5-1.5-4.2-1.5c-1.1 0-2.1 0.2-3 0.7q-1.4 0.8-2.1 2v-2.5h-1.1v13.1h1.1v-7.3c0-0.9 0.3-1.8 0.7-2.5 0.4-0.8 1-1.4 1.8-1.8q1.1-0.7 2.6-0.7 2.2 0 3.3 1.3 1.2 1.2 1.2 3.5v7.5h1.2v-7.6q-0.1-2.7-1.5-4.2z"/>
				</g>
				<g id="&lt;Group&gt;">
					<path id="&lt;Compound Path&gt;" class="s0" d="m578.1 459.5c-0.3 0.2-0.7 0.4-1.2 0.5q-0.6 0.2-1 0.2-1.5 0-2-0.8-0.5-0.8-0.5-2.4v-8.2h4.5v-1h-4.5v-4.1l-1.1 0.1v4h-2.9v1h2.9v8.2q0 2.1 0.7 3.2c0.6 0.6 1.5 1 2.9 1 0.8 0 1.7-0.3 2.7-0.7z"/>
				</g>
				<g id="&lt;Group&gt;">
					<path id="&lt;Compound Path&gt;" fill-rule="evenodd" class="s0" d="m593.7 454.3q0 2-0.9 3.6-0.9 1.5-2.4 2.4c-1 0.6-2.2 0.9-3.5 0.9q-1.9 0-3.5-0.9-1.5-0.9-2.4-2.4-0.8-1.6-0.8-3.6c0-1.2 0.2-2.4 0.8-3.5q0.9-1.5 2.4-2.4c1.1-0.6 2.2-0.9 3.5-0.9 1.3 0 2.5 0.3 3.5 0.9q1.5 0.9 2.4 2.4c0.6 1.1 0.9 2.3 0.9 3.5zm-1.2 0q0-1.6-0.7-2.9-0.7-1.3-2-2.1-1.3-0.7-2.9-0.7c-1.1 0-2 0.2-2.9 0.7q-1.3 0.8-2 2.1-0.7 1.3-0.7 2.9 0 1.7 0.7 3 0.7 1.3 2 2.1c0.9 0.5 1.8 0.7 2.9 0.7q1.6 0 2.9-0.7 1.3-0.8 2-2.1 0.7-1.3 0.7-3z"/>
				</g>
				<g id="&lt;Group&gt;">
					<path id="&lt;Compound Path&gt;" class="s0" d="m602.8 447.6q-1.4 0-2.6 0.8c-0.8 0.6-1.4 1.3-1.9 2.3v-2.9h-1.1v13.1h1.1v-6.7q0.1-1.5 0.6-2.8c0.4-0.8 1-1.5 1.7-2q1-0.7 2.2-0.7c0.8 0 1.6 0.2 2.2 0.6l0.5-1q-1.1-0.7-2.7-0.7z"/>
				</g>
				<g id="&lt;Group&gt;">
					<path id="&lt;Compound Path&gt;" class="s0" d="m607.7 459.6q-0.3-0.3-0.7-0.3c-0.2 0-0.5 0.1-0.6 0.3q-0.3 0.2-0.3 0.6 0 0.4 0.3 0.7c0.1 0.1 0.4 0.2 0.6 0.2q0.4 0 0.7-0.2 0.2-0.3 0.2-0.7 0-0.4-0.2-0.6z"/>
				</g>
				<g id="&lt;Group&gt;">
					<path id="&lt;Compound Path&gt;" class="s0" d="m621.5 458.5c-0.6 0.5-1.2 0.9-1.9 1.2q-1 0.4-2.2 0.4-1.6 0-2.9-0.7c-0.8-0.5-1.5-1.1-2.1-2q-0.7-1.3-0.7-3.1c0-1.1 0.2-2.2 0.7-3q0.8-1.4 2.1-2c0.9-0.5 1.8-0.7 2.9-0.7q1.1 0 2.2 0.4 1 0.4 1.8 1.2l0.7-0.7c-1.3-1.3-2.9-2-4.7-2q-1.9 0-3.5 0.9c-1 0.5-1.8 1.3-2.4 2.4q-0.9 1.5-0.9 3.5 0 2 0.9 3.6 0.9 1.6 2.4 2.4c1.1 0.6 2.2 0.9 3.5 0.9 0.9 0 1.8-0.2 2.6-0.5q1.2-0.5 2.3-1.4z"/>
				</g>
				<g id="&lt;Group&gt;">
					<path id="&lt;Compound Path&gt;" fill-rule="evenodd" class="s0" d="m637.9 454.3q0 2-0.9 3.6-0.8 1.5-2.4 2.4c-1 0.6-2.2 0.9-3.5 0.9q-1.9 0-3.4-0.9-1.6-0.9-2.5-2.4-0.8-1.6-0.8-3.6c0-1.2 0.3-2.4 0.8-3.5q0.9-1.5 2.5-2.4c1-0.6 2.1-0.9 3.4-0.9 1.3 0 2.5 0.3 3.5 0.9q1.6 0.9 2.4 2.4c0.6 1.1 0.9 2.3 0.9 3.5zm-1.1 0q0-1.6-0.8-2.9-0.7-1.3-2-2.1-1.3-0.7-2.9-0.7c-1 0-2 0.2-2.9 0.7q-1.2 0.8-2 2.1-0.7 1.3-0.7 2.9 0 1.7 0.7 3 0.8 1.3 2 2.1c0.9 0.5 1.9 0.7 2.9 0.7q1.6 0 2.9-0.7 1.3-0.8 2-2.1 0.8-1.3 0.8-3z"/>
				</g>
				<g id="&lt;Group&gt;">
					<path id="&lt;Compound Path&gt;" class="s0" d="m660.6 449.1c-1-1-2.2-1.5-3.9-1.5q-1.6 0-2.9 0.8-1.3 0.9-2 2.4-0.5-1.6-1.7-2.4c-0.9-0.6-1.9-0.8-3.1-0.8-0.9 0-1.8 0.2-2.6 0.7-0.8 0.4-1.4 1.1-1.9 1.9v-2.4h-1.1v13.1h1.2v-7.4c0-0.9 0.2-1.7 0.5-2.5q0.6-1.1 1.6-1.7 1.1-0.7 2.3-0.7 2 0 3.1 1.2 1 1.3 1 3.5v7.6h1.2v-7.4c0-0.9 0.2-1.7 0.5-2.5q0.6-1.1 1.6-1.7c0.7-0.5 1.5-0.7 2.3-0.7q2 0 3.1 1.2 1 1.3 1 3.5v7.6h1.2v-7.6q0-2.7-1.4-4.2z"/>
				</g>
				<g id="&lt;Group&gt;">
					<path id="&lt;Compound Path&gt;" class="s0" d="m667.5 459.6q-0.3-0.3-0.7-0.3c-0.2 0-0.5 0.1-0.6 0.3q-0.3 0.2-0.3 0.6 0 0.4 0.3 0.7c0.1 0.1 0.4 0.2 0.6 0.2q0.4 0 0.7-0.2 0.2-0.3 0.2-0.7 0-0.4-0.2-0.6z"/>
				</g>
				<g id="&lt;Group&gt;">
					<path id="&lt;Compound Path&gt;" class="s0" d="m677.9 459.5c-0.4 0.2-0.8 0.4-1.2 0.5q-0.6 0.2-1.1 0.2-1.4 0-2-0.8-0.5-0.8-0.5-2.4v-8.2h4.6v-1h-4.6v-4.1l-1.1 0.1v4h-2.8v1h2.8v8.2q0 2.1 0.8 3.2c0.5 0.6 1.5 1 2.8 1 0.9 0 1.8-0.3 2.7-0.7z"/>
				</g>
				<g id="&lt;Group&gt;">
					<path id="&lt;Compound Path&gt;" class="s0" d="m686.7 447.6q-1.5 0-2.7 0.8c-0.8 0.6-1.4 1.3-1.9 2.3v-2.9h-1v13.1h1.1v-6.7q0-1.5 0.6-2.8c0.4-0.8 0.9-1.5 1.6-2q1-0.7 2.2-0.7 1.2 0 2.3 0.6l0.5-1c-0.8-0.4-1.7-0.7-2.7-0.7z"/>
				</g>
			</g>
			<g id="&lt;Group&gt;">
				<g id="&lt;Group&gt;">
					<path id="&lt;Compound Path&gt;" fill-rule="evenodd" class="s0" d="m397.4 356.9v50.9h-46.3v13.9h-18.6v-64.8zm-18.5 18.5h-27.8v13.9h27.8z"/>
				</g>
				<g id="&lt;Group&gt;">
					<path id="&lt;Compound Path&gt;" class="s0" d="m448.4 356.9v46.3h-27.8v-46.3h-18.5v64.8h64.8v-64.8z"/>
				</g>
				<g id="&lt;Group&gt;">
					<path id="&lt;Compound Path&gt;" fill-rule="evenodd" class="s0" d="m536.5 356.9v64.8h-18.6v-13.9h-27.8v13.9h-18.5v-64.8zm-18.6 18.5h-27.7v13.9h27.7z"/>
				</g>
				<g id="&lt;Group&gt;">
					<path id="&lt;Compound Path&gt;" class="s0" d="m587.4 356.9v33.2l-33.2-33.2h-13.1v64.8h18.5v-33.2l33.3 33.2h13.1v-64.8z"/>
				</g>
				<g id="&lt;Group&gt;">
					<path id="&lt;Compound Path&gt;" class="s0" d="m610.6 356.9v18.5h23.2v46.3h18.5v-46.3h23.2v-18.5z"/>
				</g>
				<g id="&lt;Group&gt;">
					<path id="&lt;Compound Path&gt;" fill-rule="evenodd" class="s0" d="m745 356.9v64.8h-64.9v-64.8zm-18.5 18.5h-27.8v27.8h27.8z"/>
				</g>
				<g id="&lt;Group&gt;">
					<path id="&lt;Compound Path&gt;" fill-rule="evenodd" class="s0" d="m814.6 421.7h-26.2l-20.2-20.1v20.1h-18.5v-64.8h64.8v50.9h-13.8zm-18.6-46.3h-27.8v13.9h27.8z"/>
				</g>
			</g>
			<g id="&lt;Group&gt;">
				<g id="&lt;Group&gt;">
					<path id="&lt;Compound Path&gt;" fill-rule="evenodd" class="s1" d="m203.9 381.9c0 4.3-1.8 8.2-4.6 11.1-2.8 2.8-6.7 4.6-11.1 4.6-8.6 0-15.6-7-15.6-15.7 0-4.3 1.7-8.2 4.6-11 2.8-2.9 6.7-4.6 11-4.6 4.4 0 8.3 1.7 11.1 4.6 2.8 2.8 4.6 6.7 4.6 11zm-9.4-1.9h-4.4v-4.4h-3.8v4.4h-4.3v3.8h4.3v4.4h3.8v-4.4h4.4z"/>
				</g>
			</g>
			<g id="&lt;Group&gt;">
				<g id="&lt;Group&gt;">
					<path id="&lt;Compound Path&gt;" fill-rule="evenodd" class="s1" d="m203.9 418.6c0 4.3-1.8 8.2-4.6 11.1-2.8 2.8-6.7 4.5-11.1 4.5-8.6 0-15.6-7-15.6-15.6 0-4.3 1.7-8.2 4.6-11.1 2.8-2.8 6.7-4.5 11-4.5 4.4 0 8.3 1.7 11.1 4.5 2.8 2.9 4.6 6.8 4.6 11.1zm-17.6-6.5c0 1 0.9 1.9 1.9 1.9 1.1 0 1.9-0.9 1.9-1.9 0-1-0.8-1.9-1.9-1.9-1 0-1.9 0.9-1.9 1.9zm3.8 13c0-1.1-0.8-1.9-1.9-1.9-1 0-1.9 0.8-1.9 1.9 0 1 0.9 1.9 1.9 1.9 1.1 0 1.9-0.9 1.9-1.9zm4.4-8.4h-12.5v3.8h12.5z"/>
				</g>
			</g>
			<g id="&lt;Group&gt;">
				<g id="&lt;Group&gt;">
					<path id="&lt;Compound Path&gt;" fill-rule="evenodd" class="s1" d="m240.6 381.9c0 4.3-1.7 8.2-4.6 11.1-2.8 2.8-6.7 4.6-11 4.6-8.6 0-15.6-7-15.6-15.7 0-4.3 1.7-8.2 4.6-11 2.8-2.9 6.7-4.6 11-4.6 4.3 0 8.2 1.7 11 4.6 2.9 2.8 4.6 6.7 4.6 11zm-12.9 0l3.1-3.1-2.7-2.6-3.1 3-3.1-3-2.7 2.6 3.1 3.1-3.1 3.2 2.7 2.6 3.1-3.1 3.1 3.1 2.7-2.6z"/>
				</g>
			</g>
			<g id="&lt;Group&gt;">
				<g id="&lt;Group&gt;">
					<path id="&lt;Path&gt;" class="s1" d="m216.5 414.9c-2.3 1.9-4.6 3.9-6.9 6.1q-0.2-1.2-0.2-2.4c0-4.3 1.7-8.2 4.6-11.1 2.8-2.8 6.7-4.5 11-4.5q2.7 0 5.2 0.9c-4.7 3.5-9.1 7-13.3 10.6-0.2 0.2-0.4 0.3-0.4 0.4z"/>
					<path id="&lt;Path&gt;" class="s1" d="m240.6 418.3v0.3c0 4.3-1.7 8.2-4.6 11.1-2.4 2.4-5.6 4-9.2 4.4 4.4-5.5 9-10.8 13.8-15.8z"/>
				</g>
			</g>
			<g id="&lt;Group&gt;">
				<path id="&lt;Compound Path&gt;" class="s2" d="m162.9 469.1c-1.2-2.2-2.5-4.4-3.9-6.5-1.5-2.5-3.2-4.9-4.8-7.1l-0.3-0.4c-2.4-3.2-4.9-6.3-7.4-9.1v8.1c0 4.6 1.9 8.8 5 11.9 3 3 7.2 4.9 11.8 4.9h0.5c-0.3-0.6-0.6-1.2-0.9-1.8zm100.7-72.4c-1.5 1.2-3 2.5-4.5 3.7-0.3 0.3-0.7 0.6-1.1 0.9v52.8c0 2.2-0.9 4.3-2.4 5.7-1.4 1.5-3.5 2.4-5.7 2.4h-42.8c-0.2 0.3-0.4 0.6-0.6 0.9l-2.4 4c-0.7 1.3-1.4 2.5-2.1 3.8h47.9c4.6 0 8.8-1.9 11.9-4.9 3-3.1 4.9-7.3 4.9-11.9v-60z"/>
				<path id="&lt;Compound Path&gt;" fill-rule="evenodd" class="s2" d="m266.5 364.1l0.2 0.2v16.2q-0.4 0.2-0.8 0.4c-2.4 1.3-5 2.8-7.9 4.5v-17.3l-1.1-1h-11.6c-4.6 0-8.8-2-11.8-5-3.1-3-4.9-7.2-4.9-11.8v-11.4l-0.3-0.5h-65c-2.2 0-4.2 0.9-5.7 2.4-1.5 1.4-2.4 3.4-2.4 5.7v90.4q-2.8-1.5-5.7-2.8l-2.3-1c-0.2-0.1-0.4-0.3-0.7-0.4v-86.2c0-4.7 1.9-8.9 5-11.9 3-3 7.2-4.9 11.8-4.9h69.8c1 0 2 0.4 2.8 1.2l29.2 28.5c1 0.8 1.6 1.9 1.6 3.3q0 0.7-0.2 1.4zm-14.8-5.7l-14.4-14.1v6c0 2.2 0.9 4.2 2.3 5.7 1.5 1.4 3.5 2.4 5.7 2.4z"/>
			</g>
			<g id="&lt;Group&gt;">
				<path id="&lt;Path&gt;" class="s3" d="m290.9 373c-6.2 3.7-12.4 7.8-18.3 12.3-2.1 1.5-4.1 3-5.9 4.4q-0.6 0.5-1.1 0.9l-4.2 3.5q-1.7 1.4-3.4 2.8c-0.4 0.3-0.7 0.7-1.1 1-0.4 0.2-0.7 0.5-1.1 0.8-1.6 1.5-3.1 2.9-4.7 4.4-1 0.9-2 1.9-3.1 2.9l-1.3 1.2c-0.9 0.8-1.7 1.6-2.6 2.5l-3.6 3.8c-0.2 0.2-0.4 0.4-0.5 0.6-0.3 0.2-0.5 0.5-0.8 0.7-5.5 5.8-10.9 11.9-16 18.4-0.2 0.3-0.5 0.5-0.7 0.8-3.1 4.1-6.2 8.1-9 12.1-1.1 1.7-2.3 3.4-3.5 5.1q-1.1 1.8-2.3 3.6c-1.4 2.1-2.7 4.3-4.1 6.5l-0.5 0.9-1.9 3.3c-0.9 1.5-1.8 3-2.6 4.6-0.1 0.2-0.3 0.5-0.4 0.8q-0.5 0.9-1 1.8c-0.8 1.5-1.5 2.9-2.3 4.5-0.4 0.8-0.8 1.6-1.2 2.3q-0.2 0.5-0.4 1l-22.2-0.1q-1.2-4.4-3.5-9.5c-0.1-0.3-0.3-0.5-0.4-0.8-0.4-0.8-0.8-1.7-1.3-2.6q-1.5-2.7-3.1-5.3-0.5-0.8-0.9-1.5c-1.6-2.5-3.3-4.9-5-7.3-0.2-0.2-0.3-0.4-0.3-0.4q-0.7-0.9-1.4-1.7c-2.4-3.2-4.9-6.2-7.4-9q-0.6-0.8-1.3-1.5l-0.6-0.7c-2.1-2.4-4.2-4.6-6.3-6.7q3 1.3 6.2 2.8l0.7 0.3 1.6 0.7c2.1 1 4.2 2 6.3 3.2q0.5 0.2 0.8 0.4c3.2 1.6 6.1 3.1 8.7 4.7 6.3 3.9 11.1 7.1 15.3 10.6l1.4 1.1 1.4-1.8c1-1.3 2.1-2.5 3.1-3.8 2.4-2.9 4.9-5.7 7.3-8.5l2.6-2.8c1.7-1.8 3.4-3.7 5.1-5.4 3.4-3.5 7-6.9 10.5-10.2 0.2-0.2 0.4-0.3 0.5-0.5 2.2-2.1 4.3-4 6.5-5.8q0.5-0.5 1.1-1l0.3-0.2q0.8-0.7 1.6-1.3c3.9-3.4 8-6.6 12.6-10.1l0.3-0.3 4.4-3.2c0.8-0.6 1.7-1.1 2.5-1.7 0.7-0.5 1.4-0.9 2-1.4l2.6-1.7q3.3-2.3 6.6-4.4l6.4-3.8c0.3-0.1 0.6-0.3 0.9-0.5 2.8-1.7 5.4-3.2 7.8-4.5q0.4-0.2 0.8-0.4c1-0.5 2.1-1.1 3.2-1.6 6.6-3.6 13.4-6.6 20.2-9.3z"/>
			</g>
		</g>
	</g>
</svg>