<svg width="367" height="115" viewBox="0 0 367 115" fill="none" xmlns="http://www.w3.org/2000/svg">
<rect x="5" y="49" width="31" height="27" fill="#48CAED"/>
<rect x="5" y="83" width="31" height="26" fill="#FF9D00"/>
<rect x="5" y="15" width="31" height="27" fill="#FF0F00"/>
<rect x="42" y="15" width="62" height="61" fill="#F73C5C"/>
<path d="M116.227 75.0909V27.0909H124.318V32.8636H124.795C125.22 32.0152 125.818 31.1136 126.591 30.1591C127.364 29.1894 128.409 28.3636 129.727 27.6818C131.045 26.9848 132.727 26.6364 134.773 26.6364C137.47 26.6364 139.902 27.3258 142.068 28.7045C144.25 30.0682 145.977 32.0909 147.25 34.7727C148.538 37.4394 149.182 40.7121 149.182 44.5909C149.182 48.4242 148.553 51.6818 147.295 54.3636C146.038 57.0455 144.326 59.0909 142.159 60.5C139.992 61.9091 137.538 62.6136 134.795 62.6136C132.795 62.6136 131.136 62.2803 129.818 61.6136C128.5 60.947 127.439 60.1439 126.636 59.2045C125.848 58.25 125.235 57.3485 124.795 56.5H124.455V75.0909H116.227ZM124.295 44.5455C124.295 46.803 124.614 48.7803 125.25 50.4773C125.902 52.1742 126.833 53.5 128.045 54.4545C129.273 55.3939 130.758 55.8636 132.5 55.8636C134.318 55.8636 135.841 55.3788 137.068 54.4091C138.295 53.4242 139.22 52.0833 139.841 50.3864C140.477 48.6742 140.795 46.7273 140.795 44.5455C140.795 42.3788 140.485 40.4545 139.864 38.7727C139.242 37.0909 138.318 35.7727 137.091 34.8182C135.864 33.8636 134.333 33.3864 132.5 33.3864C130.742 33.3864 129.25 33.8485 128.023 34.7727C126.795 35.697 125.864 36.9924 125.227 38.6591C124.606 40.3258 124.295 42.2879 124.295 44.5455ZM178.477 47.3182V27.0909H186.705V62H178.727V55.7955H178.364C177.576 57.75 176.28 59.3485 174.477 60.5909C172.689 61.8333 170.485 62.4545 167.864 62.4545C165.576 62.4545 163.553 61.947 161.795 60.9318C160.053 59.9015 158.689 58.4091 157.705 56.4545C156.72 54.4848 156.227 52.1061 156.227 49.3182V27.0909H164.455V48.0455C164.455 50.2576 165.061 52.0152 166.273 53.3182C167.485 54.6212 169.076 55.2727 171.045 55.2727C172.258 55.2727 173.432 54.9773 174.568 54.3864C175.705 53.7955 176.636 52.9167 177.364 51.75C178.106 50.5682 178.477 49.0909 178.477 47.3182ZM205.21 62.7045C202.998 62.7045 201.006 62.3106 199.233 61.5227C197.475 60.7197 196.081 59.5379 195.051 57.9773C194.036 56.4167 193.528 54.4924 193.528 52.2045C193.528 50.2348 193.892 48.6061 194.619 47.3182C195.347 46.0303 196.339 45 197.597 44.2273C198.854 43.4545 200.271 42.8712 201.847 42.4773C203.438 42.0682 205.081 41.7727 206.778 41.5909C208.824 41.3788 210.483 41.1894 211.756 41.0227C213.028 40.8409 213.953 40.5682 214.528 40.2045C215.119 39.8258 215.415 39.2424 215.415 38.4545V38.3182C215.415 36.6061 214.907 35.2803 213.892 34.3409C212.877 33.4015 211.415 32.9318 209.506 32.9318C207.491 32.9318 205.892 33.3712 204.71 34.25C203.544 35.1288 202.756 36.1667 202.347 37.3636L194.665 36.2727C195.271 34.1515 196.271 32.3788 197.665 30.9545C199.059 29.5151 200.763 28.4394 202.778 27.7273C204.794 27 207.021 26.6364 209.46 26.6364C211.142 26.6364 212.816 26.8333 214.483 27.2273C216.15 27.6212 217.672 28.2727 219.051 29.1818C220.43 30.0758 221.536 31.2955 222.369 32.8409C223.218 34.3864 223.642 36.3182 223.642 38.6364V62H215.733V57.2045H215.46C214.96 58.1742 214.256 59.0833 213.347 59.9318C212.453 60.7652 211.324 61.4394 209.96 61.9545C208.612 62.4545 207.028 62.7045 205.21 62.7045ZM207.347 56.6591C208.998 56.6591 210.43 56.3333 211.642 55.6818C212.854 55.0152 213.786 54.1364 214.438 53.0455C215.104 51.9545 215.438 50.7652 215.438 49.4773V45.3636C215.18 45.5758 214.741 45.7727 214.119 45.9545C213.513 46.1364 212.831 46.2955 212.074 46.4318C211.316 46.5682 210.566 46.6894 209.824 46.7955C209.081 46.9015 208.438 46.9924 207.892 47.0682C206.665 47.2348 205.566 47.5076 204.597 47.8864C203.627 48.2652 202.862 48.7955 202.301 49.4773C201.741 50.1439 201.46 51.0076 201.46 52.0682C201.46 53.5833 202.013 54.7273 203.119 55.5C204.225 56.2727 205.634 56.6591 207.347 56.6591ZM240.142 41.5455V62H231.915V27.0909H239.778V33.0227H240.188C240.991 31.0682 242.271 29.5152 244.028 28.3636C245.801 27.2121 247.991 26.6364 250.597 26.6364C253.006 26.6364 255.104 27.1515 256.892 28.1818C258.695 29.2121 260.089 30.7045 261.074 32.6591C262.074 34.6136 262.566 36.9848 262.551 39.7727V62H254.324V41.0455C254.324 38.7121 253.718 36.8864 252.506 35.5682C251.309 34.25 249.65 33.5909 247.528 33.5909C246.089 33.5909 244.809 33.9091 243.688 34.5455C242.581 35.1667 241.71 36.0682 241.074 37.25C240.453 38.4318 240.142 39.8636 240.142 41.5455ZM288.347 27.0909V33.4545H268.278V27.0909H288.347ZM273.233 18.7273H281.46V51.5C281.46 52.6061 281.627 53.4545 281.96 54.0455C282.309 54.6212 282.763 55.0152 283.324 55.2273C283.884 55.4394 284.506 55.5455 285.188 55.5455C285.703 55.5455 286.172 55.5076 286.597 55.4318C287.036 55.3561 287.369 55.2879 287.597 55.2273L288.983 61.6591C288.544 61.8106 287.915 61.9773 287.097 62.1591C286.294 62.3409 285.309 62.447 284.142 62.4773C282.081 62.5379 280.225 62.2273 278.574 61.5455C276.922 60.8485 275.612 59.7727 274.642 58.3182C273.688 56.8636 273.218 55.0455 273.233 52.8636V18.7273ZM310.08 62.6818C306.67 62.6818 303.716 61.9318 301.216 60.4318C298.716 58.9318 296.777 56.8333 295.398 54.1364C294.034 51.4394 293.352 48.2879 293.352 44.6818C293.352 41.0758 294.034 37.9167 295.398 35.2045C296.777 32.4924 298.716 30.3864 301.216 28.8864C303.716 27.3864 306.67 26.6364 310.08 26.6364C313.489 26.6364 316.443 27.3864 318.943 28.8864C321.443 30.3864 323.375 32.4924 324.739 35.2045C326.117 37.9167 326.807 41.0758 326.807 44.6818C326.807 48.2879 326.117 51.4394 324.739 54.1364C323.375 56.8333 321.443 58.9318 318.943 60.4318C316.443 61.9318 313.489 62.6818 310.08 62.6818ZM310.125 56.0909C311.973 56.0909 313.519 55.5833 314.761 54.5682C316.004 53.5379 316.928 52.1591 317.534 50.4318C318.155 48.7045 318.466 46.7803 318.466 44.6591C318.466 42.5227 318.155 40.5909 317.534 38.8636C316.928 37.1212 316.004 35.7348 314.761 34.7045C313.519 33.6742 311.973 33.1591 310.125 33.1591C308.231 33.1591 306.655 33.6742 305.398 34.7045C304.155 35.7348 303.223 37.1212 302.602 38.8636C301.996 40.5909 301.693 42.5227 301.693 44.6591C301.693 46.7803 301.996 48.7045 302.602 50.4318C303.223 52.1591 304.155 53.5379 305.398 54.5682C306.655 55.5833 308.231 56.0909 310.125 56.0909ZM333.79 62V27.0909H341.767V32.9091H342.131C342.767 30.8939 343.858 29.3409 345.403 28.25C346.964 27.1439 348.744 26.5909 350.744 26.5909C351.199 26.5909 351.706 26.6136 352.267 26.6591C352.843 26.6894 353.32 26.7424 353.699 26.8182V34.3864C353.35 34.2652 352.797 34.1591 352.04 34.0682C351.297 33.9621 350.578 33.9091 349.881 33.9091C348.381 33.9091 347.032 34.2348 345.835 34.8864C344.653 35.5227 343.722 36.4091 343.04 37.5455C342.358 38.6818 342.017 39.9924 342.017 41.4773V62H333.79Z" fill="#736C6C"/>
</svg>
